<svg id="Layer_1" enable-background="new 0 0 64 64" viewBox="0 0 64 64" xmlns="http://www.w3.org/2000/svg"><path d="m58.5 59.9v4.1h-53v-4.1c0-7.5.9-16.5 8.3-17.8.1 0 5.3-1.1 5.4-1.2 1-.2 1.8-.5 2.6-1 .9-.6 1.6-1.3 2.2-2.2.8-1.1 1.2-2.5 1.2-4v-7h13.6v7c0 1.5.4 2.8 1.2 4 .6.9 1.3 1.6 2.2 2.2.8.5 1.7.8 2.6 1 .1 0 5.3 1.1 5.4 1.2 7.4 1.3 8.3 10.3 8.3 17.8z" fill="#fabea0"/><path d="m38.8 26.8v5.3l-.5.5-.9.9c-2.1 2-3.9 2-5.4 2s-3.3-.1-5.4-2l-.9-.9-.5-.5v-5.3z" fill="#e6a082"/><path d="m21.8 39.9c-.8.5-1.7.8-2.6 1-.1 0-5.3 1.1-5.4 1.2-7.4 1.3-8.3 10.3-8.3 17.8v4.1h53.1v-4.1c0-7.5-.9-16.5-8.3-17.8-.1 0-5.3-1.1-5.4-1.2-.9-.2-1.8-.5-2.6-1-.9-.6-1.7-1.3-2.2-2.2l-8 5.2-8-5.2c-.7.9-1.4 1.7-2.3 2.2z" fill="#ff7878"/><path d="m19.2 40.9c-.1 0-5.3 1.1-5.4 1.2-.2 0-.4.1-.6.1.2.1.3.2.5.3 1.7.7-.6 2.9.1 5 .9 2.6 3.2 3.8-1.1 5.7 0 0 8 4.3 9.5-3 .4-2 1.4-2.5 2.4-3.2l1.6 2.8v.1l.4.7 1.4-1.4 3.9-4 3.9 4 1.4 1.4.5-.8 3.1-5.3c0 .3 0 .6-.2.9-.6 1.2-1.2 5.9 2 7.6 5.5 2.8 8.8-1.4 8.8-1.4s-3.1-.2-3.7-2c-.5-1.7 1.9-2.6 3.8-4.1.9-.7 1-1.7.8-2.7-.7-.3-1.4-.6-2.2-.7-.1 0-5.3-1.1-5.4-1.2-.9-.2-1.8-.5-2.6-1-.9-.6-1.7-1.3-2.2-2.2l-8 5.2-8-5.2c-.6.9-1.3 1.6-2.2 2.2-.7.5-1.6.9-2.5 1z" fill="#e65a5a"/><path d="m42.2 39.9-4.4 7.6-.5.8-1.4-1.4-3.9-4 5-3.2 3.1-2c.5.9 1.2 1.7 2.1 2.2zm-10.2 3-3.9 4-1.4 1.4-.4-.7v-.1l-4.4-7.6c.9-.6 1.6-1.3 2.2-2.2l3.1 2z" fill="#f0f0f0"/><path d="m35.9 3.8-3.9 6.7s-6.5 14.2-6.9 20.6c-.4 6.3 1.9 5.5 1.4 10.1s-3.5 3-4.3 6.8c-1.5 7.3-9.5 3-9.5 3 4.2-1.9 1.9-3.1 1.1-5.7-.7-2.2 1.6-4.3-.1-5-1.8-.8-3.1-2.7-2.8-4.6s-.3-2.4-1.3-6.1.7-6.2 2.4-6.8 1.6-1 .7-3.6 2.4-5.5 5.2-8.6-.1.4 3.9-4.7c3.3-4.2 6.7-5.9 11.8-5.9 1.3 0 2.3 1 2.3 2.3zm17.7 27.2c-.6 4.3-2.9 4.3-2.1 6.7.5 1.4 2 4 .2 5.5-1.8 1.4-4.3 2.3-3.8 4.1.5 1.7 3.7 2 3.7 2s-3.4 4.2-8.8 1.4c-3.2-1.6-2.6-6.4-2-7.6.7-1.2-.6-2.1-.3-3.8.4-1.7-2.2-2.3-1.7-8.2s-2.7-18.9-2.7-18.9l-.2-9.6c0-.9.8-1.7 1.7-1.7.7 0 1.4.2 1.9.7 1.2.9 2.4 2.4 3 3.6 1.6 3.1 4.2 2.1 6.1 5.9 1.9 3.9 1 5.5.6 7.4s-.5 3.9.8 4.9c1.3 1.1 4.2 3.4 3.6 7.6z" fill="#503c3c"/><path d="m41.2 12.1v9.1c0 1.3-.1 2.7-.3 4-.3 2-1.2 3.8-2.6 5.2l-.9.9c-2.1 2-3.9 2-5.4 2s-3.3-.1-5.4-2l-.9-.9c-1.4-1.4-2.4-3.2-2.6-5.2-.2-1.3-.3-2.6-.3-4v-9.1c0-2.2.8-4.2 2.1-5.8.9-1.1 2-2 3.3-2.6 1.2-.5 2.4-.8 3.8-.8.5 0 1 0 1.5.1.8.1 1.6.4 2.3.7.8.4 1.6.9 2.3 1.5.4.3.7.7 1 1.1 1.3 1.5 2.1 3.5 2.1 5.8z" fill="#ffd2b4"/><path d="m35.9 4.9-6.7-.7-5.4 3.7c-.6 1.3-1 2.7-1 4.2v9.1c0 1.3.1 2.7.3 4 0 .3.1.5.2.8.1-1.3.7-2.2 2.6-2.2 5.5 0 3.7-3.8 3.7-4.6 0-2.1 6.7 1 8.2-5.2.2.8.5 1.6 1.1 2.1 1.2 1.1 2.2 2.1 2.5 3.6v-7.5c0-1.6-.4-3.1-1.1-4.4l-3.9-2.2c-.4-.5-.5-.7-.5-.7z" fill="#e6a082"/><g fill="#503c3c"><path d="m35.9 2.6s2.1 3.6 2 6.6c-.2 9.2-8.5 5.1-8.5 7.5 0 .9 1.8 4.6-3.7 4.6s-.4 7.9-.6 13c-.2 5-11.5.7-11.5.7l2.6-14.7 7-14.3 6-4.1z"/><path d="m37.4 8.8s-.2 3.4 1.3 4.8 2.6 2.6 2.6 4.9-1 4 .5 7.5 3.5 10.8 3.5 10.8l2.1-9.8-4.8-20.3-6.4-3.6z"/></g></svg>