<svg id="Layer_1" enable-background="new 0 0 64 64" viewBox="0 0 64 64" xmlns="http://www.w3.org/2000/svg"><path d="m22.3 21.5-.6-.9c-.4-.6-1-1-1.7-1.1-1-.2-1.9.7-1.7 1.7l.7 3.4c.3 1.5 1.4 2.6 2.8 3l1 .3zm18.9 6.4 1-.3c1.4-.4 2.5-1.6 2.8-3l.7-3.4c.2-1-.7-1.9-1.7-1.7-.7.1-1.3.5-1.7 1.1l-.6.9z" fill="#f0b496"/><path d="m30.5 58.7c-1.1-.9-10.5-8.4-12.9-11.7-2.2-3.1-5-6.8-1.1-11.8 2.8-3.6 12.2-4.5 16.8-4.5 4.8 0 11.1.8 14 4.5 3.8 5 1.1 8.7-1 11.7-2.3 3.4-11.7 11-12.8 11.8l-1.5 1.2z" fill="#1e648c"/><path d="m44 41.7c-2.2 2.5-12 9.3-12 9.3s-9.9-6.7-12-9.3c-2.2-2.5-3.4-3.9-1.1-6.3 2.7-2.9 22-4.8 26.3 0 2.2 2.4 1 3.7-1.2 6.3z" fill="#00466e"/><path d="m62.3 64v-8.4c0-4.5-2.7-8.5-6.8-10.2l-12.1-5.1c-1.7-.7-2.8-2.4-2.8-4.2v-6.1h-17.2v6.1c0 1.8-1.1 3.5-2.8 4.2l-12.1 5c-4.1 1.7-6.8 5.8-6.8 10.2v8.5z" fill="#f0b496"/><path d="m23.4 35.3c.3.4.5.8.9 1.1l2.3 2.2c1 1.1 2.8 1.7 4.3 1.7h2.3c1.5 0 3.3-.6 4.3-1.7l2.3-2.2c.3-.3.6-.7.9-1.1v-5.3h-17.3z" fill="#e6a082"/><path d="m33.1 37.8c1.5 0 3.3-.6 4.3-1.7l2.3-2.2c1.2-1.2 1.9-2.8 2.1-4.5l.7-6.4c.1-1.3.2-2.6.2-3.9v-6.5c0-5.4-4.4-9.8-9.8-9.8h-1.8c-5.4 0-9.8 4.4-9.8 9.8v6.5c0 1.3.1 2.6.2 3.9l.7 6.4c.2 1.7.9 3.3 2.1 4.5l2.3 2.2c1 1.1 2.8 1.7 4.3 1.7z" fill="#f0c8aa"/><path d="m41.7 7.3c-.6-.4-1.4-.2-1.8.4.7-1.2.6-2.3.1-3.2-1.1-1.2-2.5-2.1-4.1-2.6-.1 0-.2 0-.2-.1-.9-.3-1.8-.4-2.8-.4h-1.8c-5.4 0-9.8 4.4-9.8 9.8v6.5l.2 1.2c1.1-3 1.5-4.8 1.5-6 .1-1.4 1-2.5 2.2-3 1-.4 2.1-.5 3.1-.1l.7.2c2.1.6 3.9.6 5.9 0l.7-.2c1-.3 2.1-.3 3.1.1 1.3.5 2.1 1.7 2.2 3 0 1.5.2 2.8 1.5 6l.2-1.2v-6.5c0-1.4-.3-2.7-.8-3.8.1 0 0-.1-.1-.1z" fill="#e6a082"/><path d="m39.5 7.2.5-.8c2.3-3.8-3.7-6.4-8.1-6.4-3.5 0-6.8 1.3-9.4 3.6-3.5 3.2-2.6 9.3-2.1 16l1 .7.6-2.4c.4-1.7.7-3.5.9-5.2l.1-.8c.1-1.4 1-2.5 2.2-3 1-.4 2.1-.5 3.1-.1h.7c2.1.6 3.9.6 5.9 0l.7-.2c1-.3 2.1-.3 3.1.1 1.3.5 2.1 1.7 2.2 3l.1.8c.1 1.8.4 3.5.9 5.2l.6 2.4 1-.7c.5-5.9 1.5-11.3-1.8-13.4-.6-.4-1.4-.2-1.8.4z" fill="#6b4c38"/><path d="m62.3 55.6c0-4.5-2.7-8.5-6.8-10.2l-10.8-4.5c-.2.3-.5.5-.7.8-2.2 2.5-12 9.3-12 9.3s-9.9-6.7-12-9.3c-.3-.3-.5-.6-.7-.8l-10.8 4.4c-4.1 1.7-6.8 5.8-6.8 10.2v8.5h60.6z" fill="#1e648c"/><path d="m47.1 41.9c-.4.6-.7 1.2-1.1 1.7-2.4 3.6-11.6 11.8-12.6 12.8l-1.4 1.4-1.5-1.3c-1-.9-10.2-9.1-12.5-12.7l-1.2-1.8c.4.5.8 1 1.2 1.4 2.3 2.7 11.5 9 12.5 9.7l1.5 1 1.5-1c1-.7 10.2-7 12.6-9.8.3-.4.7-.9 1-1.4z" fill="#00466e"/></svg>